<?xml version="1.0" encoding="UTF-8"?>
<svg xmlns="http://www.w3.org/2000/svg" xmlns:xlink="http://www.w3.org/1999/xlink" width="278.666667" height="110.666667" viewBox="0 0 278.666667 110.666667" version="1.1">
<g id="surface1">
<path style="fill-rule:nonzero;fill:rgb(100%,100%,100%);fill-opacity:1;stroke-width:1;stroke-linecap:round;stroke-linejoin:round;stroke:rgb(0%,0%,0%);stroke-opacity:1;stroke-miterlimit:10;" d="M 242.213867 157.213867 L 260.213867 157.213867 L 260.213867 175.213867 L 242.213867 175.213867 Z M 242.213867 157.213867 " transform="matrix(1.333333,0,0,1.333333,-70.666667,-137.333333)"/>
<path style=" stroke:none;fill-rule:nonzero;fill:rgb(0%,0%,0%);fill-opacity:1;" d="M 261.488281 87.621094 L 261.488281 85.558594 L 257.761719 85.558594 L 257.761719 84.601562 L 261.675781 79.039062 L 262.550781 79.039062 L 262.550781 84.601562 L 263.71875 84.601562 L 263.71875 85.558594 L 262.550781 85.558594 L 262.550781 87.621094 Z M 261.488281 84.601562 L 261.488281 80.726562 L 258.800781 84.601562 Z M 261.488281 84.601562 "/>
<path style=" stroke:none;fill-rule:nonzero;fill:rgb(0%,0%,0%);fill-opacity:1;" d="M 264.789062 85.351562 L 265.851562 85.203125 C 265.976562 85.804688 266.175781 86.234375 266.457031 86.496094 C 266.746094 86.761719 267.105469 86.890625 267.539062 86.890625 C 268.023438 86.890625 268.433594 86.726562 268.769531 86.390625 C 269.113281 86.046875 269.289062 85.617188 269.289062 85.101562 C 269.289062 84.617188 269.128906 84.21875 268.808594 83.914062 C 268.503906 83.59375 268.105469 83.433594 267.621094 83.433594 C 267.414062 83.433594 267.164062 83.476562 266.871094 83.558594 L 266.996094 82.621094 C 267.066406 82.636719 267.121094 82.640625 267.164062 82.640625 C 267.605469 82.640625 268.007812 82.527344 268.371094 82.289062 C 268.730469 82.054688 268.914062 81.695312 268.914062 81.203125 C 268.914062 80.820312 268.777344 80.496094 268.519531 80.246094 C 268.253906 79.996094 267.914062 79.871094 267.496094 79.871094 C 267.089844 79.871094 266.753906 80.007812 266.476562 80.265625 C 266.210938 80.515625 266.039062 80.902344 265.957031 81.414062 L 264.894531 81.226562 C 265.027344 80.515625 265.320312 79.96875 265.769531 79.578125 C 266.226562 79.195312 266.792969 78.996094 267.476562 78.996094 C 267.945312 78.996094 268.378906 79.101562 268.769531 79.308594 C 269.167969 79.507812 269.476562 79.777344 269.683594 80.121094 C 269.894531 80.46875 269.996094 80.839844 269.996094 81.226562 C 269.996094 81.601562 269.894531 81.945312 269.683594 82.246094 C 269.488281 82.554688 269.195312 82.796875 268.808594 82.976562 C 269.320312 83.089844 269.714844 83.328125 269.996094 83.703125 C 270.273438 84.070312 270.414062 84.527344 270.414062 85.078125 C 270.414062 85.828125 270.132812 86.46875 269.582031 86.996094 C 269.039062 87.511719 268.351562 87.765625 267.519531 87.765625 C 266.769531 87.765625 266.144531 87.546875 265.644531 87.101562 C 265.144531 86.65625 264.855469 86.074219 264.789062 85.351562 Z M 264.789062 85.351562 "/>
<path style="fill-rule:nonzero;fill:rgb(100%,100%,100%);fill-opacity:1;stroke-width:1;stroke-linecap:round;stroke-linejoin:round;stroke:rgb(0%,0%,0%);stroke-opacity:1;stroke-miterlimit:10;" d="M 224.213867 157.213867 L 242.213867 157.213867 L 242.213867 175.213867 L 224.213867 175.213867 Z M 224.213867 157.213867 " transform="matrix(1.333333,0,0,1.333333,-70.666667,-137.333333)"/>
<path style=" stroke:none;fill-rule:nonzero;fill:rgb(0%,0%,0%);fill-opacity:1;" d="M 234.113281 85.351562 L 235.175781 85.203125 C 235.300781 85.804688 235.5 86.234375 235.78125 86.496094 C 236.074219 86.761719 236.433594 86.890625 236.863281 86.890625 C 237.347656 86.890625 237.761719 86.726562 238.09375 86.390625 C 238.4375 86.046875 238.613281 85.617188 238.613281 85.101562 C 238.613281 84.617188 238.453125 84.21875 238.136719 83.914062 C 237.828125 83.59375 237.433594 83.433594 236.949219 83.433594 C 236.738281 83.433594 236.488281 83.476562 236.199219 83.558594 L 236.324219 82.621094 C 236.390625 82.636719 236.449219 82.640625 236.488281 82.640625 C 236.933594 82.640625 237.332031 82.527344 237.699219 82.289062 C 238.058594 82.054688 238.238281 81.695312 238.238281 81.203125 C 238.238281 80.820312 238.105469 80.496094 237.84375 80.246094 C 237.578125 79.996094 237.238281 79.871094 236.824219 79.871094 C 236.417969 79.871094 236.078125 80.007812 235.800781 80.265625 C 235.535156 80.515625 235.363281 80.902344 235.28125 81.414062 L 234.21875 81.226562 C 234.355469 80.515625 234.644531 79.96875 235.09375 79.578125 C 235.550781 79.195312 236.121094 78.996094 236.800781 78.996094 C 237.269531 78.996094 237.703125 79.101562 238.09375 79.308594 C 238.496094 79.507812 238.800781 79.777344 239.011719 80.121094 C 239.21875 80.46875 239.324219 80.839844 239.324219 81.226562 C 239.324219 81.601562 239.21875 81.945312 239.011719 82.246094 C 238.8125 82.554688 238.519531 82.796875 238.136719 82.976562 C 238.644531 83.089844 239.042969 83.328125 239.324219 83.703125 C 239.597656 84.070312 239.738281 84.527344 239.738281 85.078125 C 239.738281 85.828125 239.457031 86.46875 238.90625 86.996094 C 238.363281 87.511719 237.675781 87.765625 236.84375 87.765625 C 236.09375 87.765625 235.46875 87.546875 234.96875 87.101562 C 234.46875 86.65625 234.183594 86.074219 234.113281 85.351562 Z M 234.113281 85.351562 "/>
<path style=" stroke:none;fill-rule:nonzero;fill:rgb(0%,0%,0%);fill-opacity:1;" d="M 240.851562 80.164062 L 240.851562 79.140625 L 246.414062 79.140625 L 246.414062 79.953125 C 245.871094 80.539062 245.332031 81.320312 244.789062 82.289062 C 244.246094 83.246094 243.832031 84.242188 243.539062 85.265625 C 243.332031 85.976562 243.195312 86.761719 243.144531 87.621094 L 242.058594 87.621094 C 242.070312 86.945312 242.207031 86.132812 242.457031 85.183594 C 242.707031 84.226562 243.066406 83.304688 243.539062 82.414062 C 244.023438 81.527344 244.527344 80.777344 245.058594 80.164062 Z M 240.851562 80.164062 "/>
<path style="fill-rule:nonzero;fill:rgb(100%,100%,100%);fill-opacity:1;stroke-width:1;stroke-linecap:round;stroke-linejoin:round;stroke:rgb(0%,0%,0%);stroke-opacity:1;stroke-miterlimit:10;" d="M 242.213867 139.213867 L 260.213867 139.213867 L 260.213867 157.213867 L 242.213867 157.213867 Z M 242.213867 139.213867 " transform="matrix(1.333333,0,0,1.333333,-70.666667,-137.333333)"/>
<path style=" stroke:none;fill-rule:nonzero;fill:rgb(0%,0%,0%);fill-opacity:1;" d="M 263.65625 62.601562 L 263.65625 63.621094 L 257.96875 63.621094 C 257.96875 63.371094 258.011719 63.132812 258.09375 62.890625 C 258.246094 62.507812 258.480469 62.121094 258.800781 61.746094 C 259.121094 61.371094 259.578125 60.945312 260.175781 60.453125 C 261.105469 59.679688 261.730469 59.070312 262.050781 58.621094 C 262.386719 58.179688 262.550781 57.757812 262.550781 57.351562 C 262.550781 56.933594 262.394531 56.589844 262.09375 56.308594 C 261.800781 56.015625 261.417969 55.871094 260.949219 55.871094 C 260.433594 55.871094 260.019531 56.027344 259.71875 56.328125 C 259.410156 56.636719 259.261719 57.058594 259.261719 57.601562 L 258.175781 57.476562 C 258.246094 56.671875 258.519531 56.058594 259.011719 55.640625 C 259.496094 55.214844 260.144531 54.996094 260.96875 54.996094 C 261.785156 54.996094 262.433594 55.226562 262.90625 55.683594 C 263.390625 56.140625 263.636719 56.703125 263.636719 57.371094 C 263.636719 57.71875 263.5625 58.058594 263.425781 58.390625 C 263.285156 58.726562 263.050781 59.078125 262.71875 59.453125 C 262.394531 59.820312 261.863281 60.320312 261.113281 60.953125 C 260.472656 61.484375 260.0625 61.84375 259.886719 62.039062 C 259.703125 62.234375 259.558594 62.421875 259.449219 62.601562 Z M 263.65625 62.601562 "/>
<path style=" stroke:none;fill-rule:nonzero;fill:rgb(0%,0%,0%);fill-opacity:1;" d="M 264.789062 61.371094 L 265.894531 61.265625 C 265.976562 61.808594 266.164062 62.21875 266.457031 62.496094 C 266.757812 62.761719 267.121094 62.890625 267.539062 62.890625 C 268.050781 62.890625 268.480469 62.703125 268.832031 62.328125 C 269.191406 61.945312 269.371094 61.433594 269.371094 60.808594 C 269.371094 60.199219 269.195312 59.71875 268.851562 59.371094 C 268.519531 59.027344 268.082031 58.851562 267.539062 58.851562 C 267.191406 58.851562 266.878906 58.933594 266.601562 59.101562 C 266.335938 59.257812 266.121094 59.449219 265.957031 59.683594 L 264.976562 59.558594 L 265.808594 55.140625 L 270.082031 55.140625 L 270.082031 56.164062 L 266.644531 56.164062 L 266.183594 58.453125 C 266.695312 58.109375 267.238281 57.933594 267.808594 57.933594 C 268.558594 57.933594 269.191406 58.195312 269.707031 58.703125 C 270.214844 59.21875 270.476562 59.886719 270.476562 60.703125 C 270.476562 61.484375 270.253906 62.15625 269.808594 62.726562 C 269.253906 63.421875 268.496094 63.765625 267.539062 63.765625 C 266.757812 63.765625 266.121094 63.554688 265.621094 63.121094 C 265.132812 62.679688 264.855469 62.09375 264.789062 61.371094 Z M 264.789062 61.371094 "/>
<path style="fill-rule:nonzero;fill:rgb(69.803923%,85.09804%,100%);fill-opacity:1;stroke-width:1;stroke-linecap:round;stroke-linejoin:round;stroke:rgb(0%,0%,0%);stroke-opacity:1;stroke-miterlimit:10;" d="M 224.213867 139.213867 L 242.213867 139.213867 L 242.213867 157.213867 L 224.213867 157.213867 Z M 224.213867 139.213867 " transform="matrix(1.333333,0,0,1.333333,-70.666667,-137.333333)"/>
<path style=" stroke:none;fill-rule:nonzero;fill:rgb(0%,0%,0%);fill-opacity:1;" d="M 238.09375 63.621094 L 237.03125 63.621094 L 237.03125 56.890625 C 236.78125 57.140625 236.449219 57.390625 236.03125 57.640625 C 235.613281 57.882812 235.246094 58.054688 234.925781 58.164062 L 234.925781 57.140625 C 235.511719 56.882812 236.019531 56.554688 236.46875 56.164062 C 236.910156 55.761719 237.222656 55.371094 237.40625 54.996094 L 238.09375 54.996094 Z M 238.09375 63.621094 "/>
<path style=" stroke:none;fill-rule:nonzero;fill:rgb(0%,0%,0%);fill-opacity:1;" d="M 240.957031 61.640625 L 241.957031 61.539062 C 242.039062 62.011719 242.195312 62.359375 242.433594 62.578125 C 242.683594 62.789062 243.003906 62.890625 243.394531 62.890625 C 243.710938 62.890625 243.988281 62.824219 244.226562 62.683594 C 244.476562 62.53125 244.675781 62.328125 244.832031 62.078125 C 244.996094 61.828125 245.128906 61.496094 245.226562 61.078125 C 245.335938 60.664062 245.394531 60.234375 245.394531 59.789062 C 245.394531 59.746094 245.382812 59.679688 245.371094 59.578125 C 245.164062 59.914062 244.878906 60.183594 244.519531 60.390625 C 244.152344 60.601562 243.757812 60.703125 243.332031 60.703125 C 242.621094 60.703125 242.019531 60.449219 241.519531 59.933594 C 241.027344 59.421875 240.789062 58.742188 240.789062 57.890625 C 240.789062 57.015625 241.042969 56.320312 241.558594 55.789062 C 242.070312 55.261719 242.714844 54.996094 243.496094 54.996094 C 244.050781 54.996094 244.558594 55.152344 245.019531 55.453125 C 245.476562 55.746094 245.820312 56.171875 246.058594 56.726562 C 246.308594 57.28125 246.433594 58.089844 246.433594 59.140625 C 246.433594 60.242188 246.316406 61.117188 246.082031 61.765625 C 245.839844 62.421875 245.488281 62.921875 245.019531 63.265625 C 244.542969 63.601562 243.988281 63.765625 243.351562 63.765625 C 242.683594 63.765625 242.132812 63.578125 241.707031 63.203125 C 241.289062 62.828125 241.039062 62.308594 240.957031 61.640625 Z M 245.269531 57.851562 C 245.269531 57.242188 245.101562 56.761719 244.769531 56.414062 C 244.445312 56.054688 244.066406 55.871094 243.621094 55.871094 C 243.148438 55.871094 242.738281 56.070312 242.394531 56.453125 C 242.042969 56.828125 241.871094 57.324219 241.871094 57.933594 C 241.871094 58.476562 242.027344 58.921875 242.351562 59.265625 C 242.683594 59.601562 243.089844 59.765625 243.582031 59.765625 C 244.082031 59.765625 244.480469 59.601562 244.789062 59.265625 C 245.105469 58.921875 245.269531 58.449219 245.269531 57.851562 Z M 245.269531 57.851562 "/>
<path style=" stroke:none;fill-rule:nonzero;fill:rgb(0%,0%,0%);fill-opacity:1;" d="M 92.597656 71.789062 L 93.136719 70.121094 C 94.371094 70.554688 95.273438 70.929688 95.847656 71.246094 C 95.691406 69.84375 95.617188 68.871094 95.617188 68.328125 L 97.304688 68.328125 C 97.273438 69.109375 97.183594 70.078125 97.035156 71.246094 C 97.835938 70.84375 98.761719 70.46875 99.804688 70.121094 L 100.347656 71.789062 C 99.347656 72.109375 98.371094 72.324219 97.429688 72.433594 C 97.898438 72.851562 98.574219 73.589844 99.449219 74.640625 L 98.035156 75.640625 C 97.574219 75.03125 97.039062 74.195312 96.429688 73.121094 C 95.847656 74.234375 95.335938 75.074219 94.910156 75.640625 L 93.511719 74.640625 C 94.429688 73.53125 95.082031 72.796875 95.472656 72.433594 C 94.457031 72.242188 93.496094 72.027344 92.597656 71.789062 Z M 92.597656 71.789062 "/>
<path style=" stroke:none;fill-rule:nonzero;fill:rgb(0%,0%,0%);fill-opacity:1;" d="M 203.453125 69.515625 L 192.097656 69.515625 L 192.097656 67.558594 L 203.453125 67.558594 Z M 203.453125 74.726562 L 192.097656 74.726562 L 192.097656 72.765625 L 203.453125 72.765625 Z M 203.453125 74.726562 "/>
<path style="fill-rule:nonzero;fill:rgb(100%,100%,100%);fill-opacity:1;stroke-width:1;stroke-linecap:round;stroke-linejoin:round;stroke:rgb(0%,0%,0%);stroke-opacity:1;stroke-miterlimit:10;" d="M 71.999023 166.618164 L 89.999023 166.618164 L 89.999023 184.618164 L 71.999023 184.618164 Z M 71.999023 166.618164 " transform="matrix(1.333333,0,0,1.333333,-70.666667,-137.333333)"/>
<path style=" stroke:none;fill-rule:nonzero;fill:rgb(0%,0%,0%);fill-opacity:1;" d="M 34.558594 92.699219 L 34.558594 91.679688 L 40.121094 91.679688 L 40.121094 92.492188 C 39.578125 93.074219 39.039062 93.855469 38.496094 94.824219 C 37.953125 95.785156 37.539062 96.777344 37.246094 97.804688 C 37.039062 98.511719 36.902344 99.300781 36.851562 100.160156 L 35.765625 100.160156 C 35.777344 99.480469 35.914062 98.667969 36.164062 97.722656 C 36.414062 96.761719 36.773438 95.839844 37.246094 94.949219 C 37.730469 94.066406 38.234375 93.316406 38.765625 92.699219 Z M 34.558594 92.699219 "/>
<path style="fill-rule:nonzero;fill:rgb(69.803923%,85.09804%,100%);fill-opacity:1;stroke-width:1;stroke-linecap:round;stroke-linejoin:round;stroke:rgb(0%,0%,0%);stroke-opacity:1;stroke-miterlimit:10;" d="M 71.999023 130.618164 L 89.999023 130.618164 L 89.999023 148.618164 L 71.999023 148.618164 Z M 71.999023 130.618164 " transform="matrix(1.333333,0,0,1.333333,-70.666667,-137.333333)"/>
<path style=" stroke:none;fill-rule:nonzero;fill:rgb(0%,0%,0%);fill-opacity:1;" d="M 38.476562 52.160156 L 37.414062 52.160156 L 37.414062 45.429688 C 37.164062 45.679688 36.828125 45.929688 36.414062 46.179688 C 35.996094 46.417969 35.625 46.589844 35.308594 46.699219 L 35.308594 45.679688 C 35.890625 45.417969 36.402344 45.089844 36.851562 44.699219 C 37.292969 44.300781 37.605469 43.910156 37.789062 43.535156 L 38.476562 43.535156 Z M 38.476562 52.160156 "/>
<path style="fill-rule:nonzero;fill:rgb(69.803923%,85.09804%,100%);fill-opacity:1;stroke-width:1;stroke-linecap:round;stroke-linejoin:round;stroke:rgb(0%,0%,0%);stroke-opacity:1;stroke-miterlimit:10;" d="M 71.999023 148.618164 L 89.999023 148.618164 L 89.999023 166.618164 L 71.999023 166.618164 Z M 71.999023 148.618164 " transform="matrix(1.333333,0,0,1.333333,-70.666667,-137.333333)"/>
<path style=" stroke:none;fill-rule:nonzero;fill:rgb(0%,0%,0%);fill-opacity:1;" d="M 37.871094 76.160156 L 37.871094 74.097656 L 34.140625 74.097656 L 34.140625 73.136719 L 38.058594 67.574219 L 38.933594 67.574219 L 38.933594 73.136719 L 40.101562 73.136719 L 40.101562 74.097656 L 38.933594 74.097656 L 38.933594 76.160156 Z M 37.871094 73.136719 L 37.871094 69.261719 L 35.183594 73.136719 Z M 37.871094 73.136719 "/>
<path style="fill-rule:nonzero;fill:rgb(100%,100%,100%);fill-opacity:1;stroke-width:1;stroke-linecap:round;stroke-linejoin:round;stroke:rgb(0%,0%,0%);stroke-opacity:1;stroke-miterlimit:10;" d="M 53.999023 166.618164 L 71.999023 166.618164 L 71.999023 184.618164 L 53.999023 184.618164 Z M 53.999023 166.618164 " transform="matrix(1.333333,0,0,1.333333,-70.666667,-137.333333)"/>
<path style=" stroke:none;fill-rule:nonzero;fill:rgb(0%,0%,0%);fill-opacity:1;" d="M 15.976562 93.679688 L 14.914062 93.761719 C 14.828125 93.347656 14.695312 93.042969 14.515625 92.847656 C 14.234375 92.554688 13.890625 92.410156 13.476562 92.410156 C 13.125 92.410156 12.828125 92.503906 12.578125 92.679688 C 12.246094 92.929688 11.980469 93.285156 11.789062 93.742188 C 11.605469 94.199219 11.507812 94.863281 11.496094 95.722656 C 11.746094 95.347656 12.046875 95.070312 12.414062 94.886719 C 12.789062 94.695312 13.171875 94.597656 13.578125 94.597656 C 14.289062 94.597656 14.882812 94.855469 15.371094 95.367188 C 15.871094 95.882812 16.121094 96.550781 16.121094 97.367188 C 16.121094 97.910156 16 98.417969 15.765625 98.886719 C 15.527344 99.347656 15.210938 99.699219 14.808594 99.949219 C 14.402344 100.183594 13.945312 100.304688 13.433594 100.304688 C 12.558594 100.304688 11.839844 99.988281 11.289062 99.347656 C 10.730469 98.695312 10.453125 97.628906 10.453125 96.136719 C 10.453125 94.488281 10.757812 93.277344 11.371094 92.511719 C 11.898438 91.863281 12.621094 91.535156 13.539062 91.535156 C 14.203125 91.535156 14.75 91.730469 15.183594 92.117188 C 15.609375 92.492188 15.875 93.011719 15.976562 93.679688 Z M 11.664062 97.367188 C 11.664062 97.742188 11.734375 98.097656 11.890625 98.429688 C 12.042969 98.753906 12.257812 99.003906 12.539062 99.179688 C 12.8125 99.347656 13.105469 99.429688 13.414062 99.429688 C 13.855469 99.429688 14.234375 99.257812 14.558594 98.910156 C 14.875 98.550781 15.039062 98.054688 15.039062 97.429688 C 15.039062 96.835938 14.875 96.367188 14.558594 96.035156 C 14.25 95.691406 13.855469 95.511719 13.371094 95.511719 C 12.898438 95.511719 12.496094 95.691406 12.164062 96.035156 C 11.828125 96.367188 11.664062 96.816406 11.664062 97.367188 Z M 11.664062 97.367188 "/>
<path style="fill-rule:nonzero;fill:rgb(100%,100%,100%);fill-opacity:1;stroke-width:1;stroke-linecap:round;stroke-linejoin:round;stroke:rgb(0%,0%,0%);stroke-opacity:1;stroke-miterlimit:10;" d="M 89.999023 148.618164 L 107.999023 148.618164 L 107.999023 166.618164 L 89.999023 166.618164 Z M 89.999023 148.618164 " transform="matrix(1.333333,0,0,1.333333,-70.666667,-137.333333)"/>
<path style=" stroke:none;fill-rule:nonzero;fill:rgb(0%,0%,0%);fill-opacity:1;" d="M 58.496094 73.910156 L 59.601562 73.804688 C 59.683594 74.347656 59.871094 74.757812 60.164062 75.035156 C 60.464844 75.300781 60.828125 75.429688 61.246094 75.429688 C 61.757812 75.429688 62.1875 75.242188 62.539062 74.867188 C 62.898438 74.480469 63.078125 73.972656 63.078125 73.347656 C 63.078125 72.738281 62.902344 72.257812 62.558594 71.910156 C 62.226562 71.566406 61.789062 71.386719 61.246094 71.386719 C 60.898438 71.386719 60.585938 71.472656 60.308594 71.636719 C 60.042969 71.792969 59.828125 71.988281 59.664062 72.222656 L 58.683594 72.097656 L 59.515625 67.679688 L 63.789062 67.679688 L 63.789062 68.699219 L 60.351562 68.699219 L 59.890625 70.992188 C 60.402344 70.648438 60.945312 70.472656 61.515625 70.472656 C 62.265625 70.472656 62.898438 70.730469 63.414062 71.242188 C 63.921875 71.757812 64.183594 72.425781 64.183594 73.242188 C 64.183594 74.023438 63.960938 74.695312 63.515625 75.261719 C 62.960938 75.960938 62.203125 76.304688 61.246094 76.304688 C 60.464844 76.304688 59.828125 76.089844 59.328125 75.660156 C 58.839844 75.214844 58.5625 74.632812 58.496094 73.910156 Z M 58.496094 73.910156 "/>
<path style="fill-rule:nonzero;fill:rgb(69.803923%,85.09804%,100%);fill-opacity:1;stroke-width:1;stroke-linecap:round;stroke-linejoin:round;stroke:rgb(0%,0%,0%);stroke-opacity:1;stroke-miterlimit:10;" d="M 53.999023 148.618164 L 71.999023 148.618164 L 71.999023 166.618164 L 53.999023 166.618164 Z M 53.999023 148.618164 " transform="matrix(1.333333,0,0,1.333333,-70.666667,-137.333333)"/>
<path style=" stroke:none;fill-rule:nonzero;fill:rgb(0%,0%,0%);fill-opacity:1;" d="M 10.496094 73.886719 L 11.558594 73.742188 C 11.683594 74.339844 11.882812 74.773438 12.164062 75.035156 C 12.453125 75.300781 12.8125 75.429688 13.246094 75.429688 C 13.730469 75.429688 14.140625 75.261719 14.476562 74.929688 C 14.820312 74.585938 14.996094 74.152344 14.996094 73.636719 C 14.996094 73.152344 14.835938 72.757812 14.515625 72.449219 C 14.210938 72.132812 13.8125 71.972656 13.328125 71.972656 C 13.121094 71.972656 12.871094 72.011719 12.578125 72.097656 L 12.703125 71.160156 C 12.773438 71.175781 12.828125 71.179688 12.871094 71.179688 C 13.3125 71.179688 13.714844 71.066406 14.078125 70.824219 C 14.4375 70.589844 14.621094 70.230469 14.621094 69.742188 C 14.621094 69.355469 14.484375 69.035156 14.226562 68.785156 C 13.960938 68.535156 13.621094 68.410156 13.203125 68.410156 C 12.796875 68.410156 12.460938 68.542969 12.183594 68.804688 C 11.917969 69.054688 11.746094 69.441406 11.664062 69.949219 L 10.601562 69.761719 C 10.734375 69.054688 11.027344 68.507812 11.476562 68.117188 C 11.933594 67.730469 12.5 67.535156 13.183594 67.535156 C 13.652344 67.535156 14.085938 67.636719 14.476562 67.847656 C 14.875 68.042969 15.183594 68.316406 15.390625 68.660156 C 15.601562 69.007812 15.703125 69.378906 15.703125 69.761719 C 15.703125 70.136719 15.601562 70.480469 15.390625 70.785156 C 15.195312 71.089844 14.902344 71.335938 14.515625 71.511719 C 15.027344 71.628906 15.421875 71.867188 15.703125 72.242188 C 15.980469 72.605469 16.121094 73.066406 16.121094 73.617188 C 16.121094 74.367188 15.839844 75.007812 15.289062 75.535156 C 14.746094 76.050781 14.058594 76.304688 13.226562 76.304688 C 12.476562 76.304688 11.851562 76.085938 11.351562 75.636719 C 10.851562 75.195312 10.5625 74.613281 10.496094 73.886719 Z M 10.496094 73.886719 "/>
<path style="fill-rule:nonzero;fill:rgb(100%,100%,100%);fill-opacity:1;stroke-width:1;stroke-linecap:round;stroke-linejoin:round;stroke:rgb(0%,0%,0%);stroke-opacity:1;stroke-miterlimit:10;" d="M 89.999023 166.618164 L 107.999023 166.618164 L 107.999023 184.618164 L 89.999023 184.618164 Z M 89.999023 166.618164 " transform="matrix(1.333333,0,0,1.333333,-70.666667,-137.333333)"/>
<path style=" stroke:none;fill-rule:nonzero;fill:rgb(0%,0%,0%);fill-opacity:1;" d="M 60.121094 95.492188 C 59.671875 95.339844 59.351562 95.117188 59.140625 94.824219 C 58.933594 94.523438 58.828125 94.160156 58.828125 93.742188 C 58.828125 93.117188 59.046875 92.597656 59.496094 92.179688 C 59.953125 91.753906 60.546875 91.535156 61.289062 91.535156 C 62.039062 91.535156 62.640625 91.757812 63.101562 92.199219 C 63.558594 92.632812 63.789062 93.160156 63.789062 93.785156 C 63.789062 94.175781 63.683594 94.523438 63.476562 94.824219 C 63.265625 95.117188 62.945312 95.339844 62.515625 95.492188 C 63.042969 95.675781 63.445312 95.960938 63.726562 96.347656 C 64 96.722656 64.140625 97.175781 64.140625 97.699219 C 64.140625 98.441406 63.875 99.054688 63.351562 99.554688 C 62.835938 100.054688 62.152344 100.304688 61.308594 100.304688 C 60.460938 100.304688 59.773438 100.054688 59.246094 99.554688 C 58.730469 99.054688 58.476562 98.429688 58.476562 97.679688 C 58.476562 97.128906 58.609375 96.660156 58.890625 96.285156 C 59.183594 95.898438 59.589844 95.632812 60.121094 95.492188 Z M 59.914062 93.722656 C 59.914062 94.128906 60.039062 94.460938 60.289062 94.722656 C 60.546875 94.972656 60.890625 95.097656 61.308594 95.097656 C 61.726562 95.097656 62.058594 94.972656 62.308594 94.722656 C 62.570312 94.460938 62.703125 94.136719 62.703125 93.761719 C 62.703125 93.386719 62.570312 93.070312 62.308594 92.804688 C 62.042969 92.542969 61.710938 92.410156 61.308594 92.410156 C 60.902344 92.410156 60.570312 92.542969 60.308594 92.804688 C 60.042969 93.054688 59.914062 93.363281 59.914062 93.722656 Z M 59.558594 97.679688 C 59.558594 97.988281 59.625 98.277344 59.765625 98.554688 C 59.917969 98.835938 60.132812 99.050781 60.414062 99.199219 C 60.6875 99.355469 60.996094 99.429688 61.328125 99.429688 C 61.828125 99.429688 62.234375 99.273438 62.558594 98.949219 C 62.890625 98.632812 63.058594 98.222656 63.058594 97.722656 C 63.058594 97.210938 62.890625 96.785156 62.558594 96.449219 C 62.226562 96.117188 61.796875 95.949219 61.289062 95.949219 C 60.789062 95.949219 60.371094 96.117188 60.039062 96.449219 C 59.714844 96.785156 59.558594 97.195312 59.558594 97.679688 Z M 59.558594 97.679688 "/>
<path style="fill-rule:nonzero;fill:rgb(100%,100%,100%);fill-opacity:1;stroke-width:1;stroke-linecap:round;stroke-linejoin:round;stroke:rgb(0%,0%,0%);stroke-opacity:1;stroke-miterlimit:10;" d="M 89.999023 130.618164 L 107.999023 130.618164 L 107.999023 148.618164 L 89.999023 148.618164 Z M 89.999023 130.618164 " transform="matrix(1.333333,0,0,1.333333,-70.666667,-137.333333)"/>
<path style=" stroke:none;fill-rule:nonzero;fill:rgb(0%,0%,0%);fill-opacity:1;" d="M 64.039062 51.136719 L 64.039062 52.160156 L 58.351562 52.160156 C 58.351562 51.910156 58.390625 51.667969 58.476562 51.429688 C 58.625 51.042969 58.859375 50.660156 59.183594 50.285156 C 59.5 49.910156 59.960938 49.480469 60.558594 48.992188 C 61.484375 48.214844 62.109375 47.605469 62.433594 47.160156 C 62.765625 46.714844 62.933594 46.292969 62.933594 45.886719 C 62.933594 45.472656 62.777344 45.128906 62.476562 44.847656 C 62.183594 44.554688 61.796875 44.410156 61.328125 44.410156 C 60.8125 44.410156 60.402344 44.566406 60.101562 44.867188 C 59.792969 45.175781 59.640625 45.597656 59.640625 46.136719 L 58.558594 46.011719 C 58.625 45.210938 58.902344 44.597656 59.390625 44.179688 C 59.875 43.753906 60.527344 43.535156 61.351562 43.535156 C 62.167969 43.535156 62.8125 43.761719 63.289062 44.222656 C 63.773438 44.679688 64.015625 45.242188 64.015625 45.910156 C 64.015625 46.257812 63.945312 46.597656 63.808594 46.929688 C 63.667969 47.261719 63.433594 47.617188 63.101562 47.992188 C 62.777344 48.355469 62.246094 48.855469 61.496094 49.492188 C 60.855469 50.023438 60.445312 50.382812 60.265625 50.574219 C 60.085938 50.773438 59.9375 50.960938 59.828125 51.136719 Z M 64.039062 51.136719 "/>
<path style="fill-rule:nonzero;fill:rgb(69.803923%,85.09804%,100%);fill-opacity:1;stroke-width:1;stroke-linecap:round;stroke-linejoin:round;stroke:rgb(0%,0%,0%);stroke-opacity:1;stroke-miterlimit:10;" d="M 53.999023 130.618164 L 71.999023 130.618164 L 71.999023 148.618164 L 53.999023 148.618164 Z M 53.999023 130.618164 " transform="matrix(1.333333,0,0,1.333333,-70.666667,-137.333333)"/>
<path style=" stroke:none;fill-rule:nonzero;fill:rgb(0%,0%,0%);fill-opacity:1;" d="M 10.496094 47.929688 C 10.496094 46.917969 10.601562 46.097656 10.808594 45.472656 C 11.015625 44.847656 11.320312 44.367188 11.726562 44.035156 C 12.140625 43.699219 12.664062 43.535156 13.289062 43.535156 C 13.757812 43.535156 14.167969 43.632812 14.515625 43.824219 C 14.859375 44.007812 15.148438 44.273438 15.371094 44.617188 C 15.589844 44.964844 15.765625 45.386719 15.890625 45.886719 C 16.027344 46.386719 16.101562 47.070312 16.101562 47.929688 C 16.101562 48.929688 15.996094 49.742188 15.789062 50.367188 C 15.578125 50.980469 15.265625 51.460938 14.851562 51.804688 C 14.445312 52.136719 13.921875 52.304688 13.289062 52.304688 C 12.464844 52.304688 11.820312 52.007812 11.351562 51.410156 C 10.777344 50.699219 10.496094 49.542969 10.496094 47.929688 Z M 11.578125 47.929688 C 11.578125 49.335938 11.734375 50.273438 12.058594 50.742188 C 12.390625 51.199219 12.796875 51.429688 13.289062 51.429688 C 13.773438 51.429688 14.183594 51.199219 14.515625 50.742188 C 14.851562 50.273438 15.015625 49.335938 15.015625 47.929688 C 15.015625 46.511719 14.851562 45.574219 14.515625 45.117188 C 14.183594 44.648438 13.773438 44.410156 13.289062 44.410156 C 12.796875 44.410156 12.414062 44.613281 12.121094 45.011719 C 11.757812 45.542969 11.578125 46.511719 11.578125 47.929688 Z M 11.578125 47.929688 "/>
<path style="fill-rule:nonzero;fill:rgb(69.803923%,85.09804%,100%);fill-opacity:1;stroke-width:1;stroke-linecap:round;stroke-linejoin:round;stroke:rgb(0%,0%,0%);stroke-opacity:1;stroke-miterlimit:10;" d="M 144.03125 157.213867 L 162.03125 157.213867 L 162.03125 175.213867 L 144.03125 175.213867 Z M 144.03125 157.213867 " transform="matrix(1.333333,0,0,1.333333,-70.666667,-137.333333)"/>
<path style=" stroke:none;fill-rule:nonzero;fill:rgb(0%,0%,0%);fill-opacity:1;" d="M 136.082031 86.601562 L 136.082031 87.621094 L 130.394531 87.621094 C 130.394531 87.371094 130.433594 87.132812 130.519531 86.890625 C 130.667969 86.507812 130.902344 86.121094 131.226562 85.746094 C 131.542969 85.371094 132.003906 84.945312 132.601562 84.453125 C 133.527344 83.679688 134.152344 83.070312 134.476562 82.621094 C 134.808594 82.179688 134.976562 81.757812 134.976562 81.351562 C 134.976562 80.933594 134.820312 80.589844 134.519531 80.308594 C 134.226562 80.015625 133.839844 79.871094 133.371094 79.871094 C 132.855469 79.871094 132.445312 80.027344 132.144531 80.328125 C 131.835938 80.636719 131.683594 81.058594 131.683594 81.601562 L 130.601562 81.476562 C 130.667969 80.671875 130.945312 80.058594 131.433594 79.640625 C 131.917969 79.214844 132.570312 78.996094 133.394531 78.996094 C 134.210938 78.996094 134.855469 79.226562 135.332031 79.683594 C 135.816406 80.140625 136.058594 80.703125 136.058594 81.371094 C 136.058594 81.71875 135.988281 82.058594 135.851562 82.390625 C 135.710938 82.726562 135.476562 83.078125 135.144531 83.453125 C 134.820312 83.820312 134.289062 84.320312 133.539062 84.953125 C 132.898438 85.484375 132.488281 85.84375 132.308594 86.039062 C 132.128906 86.234375 131.980469 86.421875 131.871094 86.601562 Z M 136.082031 86.601562 "/>
<path style="fill-rule:nonzero;fill:rgb(69.803923%,85.09804%,100%);fill-opacity:1;stroke-width:1;stroke-linecap:round;stroke-linejoin:round;stroke:rgb(0%,0%,0%);stroke-opacity:1;stroke-miterlimit:10;" d="M 162.03125 157.213867 L 180.03125 157.213867 L 180.03125 175.213867 L 162.03125 175.213867 Z M 162.03125 157.213867 " transform="matrix(1.333333,0,0,1.333333,-70.666667,-137.333333)"/>
<path style=" stroke:none;fill-rule:nonzero;fill:rgb(0%,0%,0%);fill-opacity:1;" d="M 154.539062 85.351562 L 155.601562 85.203125 C 155.726562 85.804688 155.925781 86.234375 156.207031 86.496094 C 156.496094 86.761719 156.855469 86.890625 157.289062 86.890625 C 157.773438 86.890625 158.183594 86.726562 158.519531 86.390625 C 158.863281 86.046875 159.039062 85.617188 159.039062 85.101562 C 159.039062 84.617188 158.878906 84.21875 158.558594 83.914062 C 158.253906 83.59375 157.855469 83.433594 157.371094 83.433594 C 157.164062 83.433594 156.914062 83.476562 156.621094 83.558594 L 156.746094 82.621094 C 156.816406 82.636719 156.871094 82.640625 156.914062 82.640625 C 157.355469 82.640625 157.757812 82.527344 158.121094 82.289062 C 158.480469 82.054688 158.664062 81.695312 158.664062 81.203125 C 158.664062 80.820312 158.527344 80.496094 158.269531 80.246094 C 158.003906 79.996094 157.664062 79.871094 157.246094 79.871094 C 156.839844 79.871094 156.503906 80.007812 156.226562 80.265625 C 155.960938 80.515625 155.789062 80.902344 155.707031 81.414062 L 154.644531 81.226562 C 154.777344 80.515625 155.070312 79.96875 155.519531 79.578125 C 155.976562 79.195312 156.542969 78.996094 157.226562 78.996094 C 157.695312 78.996094 158.128906 79.101562 158.519531 79.308594 C 158.917969 79.507812 159.226562 79.777344 159.433594 80.121094 C 159.644531 80.46875 159.746094 80.839844 159.746094 81.226562 C 159.746094 81.601562 159.644531 81.945312 159.433594 82.246094 C 159.238281 82.554688 158.945312 82.796875 158.558594 82.976562 C 159.070312 83.089844 159.464844 83.328125 159.746094 83.703125 C 160.023438 84.070312 160.164062 84.527344 160.164062 85.078125 C 160.164062 85.828125 159.882812 86.46875 159.332031 86.996094 C 158.789062 87.511719 158.101562 87.765625 157.269531 87.765625 C 156.519531 87.765625 155.894531 87.546875 155.394531 87.101562 C 154.894531 86.65625 154.605469 86.074219 154.539062 85.351562 Z M 154.539062 85.351562 "/>
<path style="fill-rule:nonzero;fill:rgb(69.803923%,85.09804%,100%);fill-opacity:1;stroke-width:1;stroke-linecap:round;stroke-linejoin:round;stroke:rgb(0%,0%,0%);stroke-opacity:1;stroke-miterlimit:10;" d="M 162.03125 139.213867 L 180.03125 139.213867 L 180.03125 157.213867 L 162.03125 157.213867 Z M 162.03125 139.213867 " transform="matrix(1.333333,0,0,1.333333,-70.666667,-137.333333)"/>
<path style=" stroke:none;fill-rule:nonzero;fill:rgb(0%,0%,0%);fill-opacity:1;" d="M 158.519531 63.621094 L 157.457031 63.621094 L 157.457031 56.890625 C 157.207031 57.140625 156.871094 57.390625 156.457031 57.640625 C 156.039062 57.882812 155.667969 58.054688 155.351562 58.164062 L 155.351562 57.140625 C 155.933594 56.882812 156.445312 56.554688 156.894531 56.164062 C 157.335938 55.761719 157.648438 55.371094 157.832031 54.996094 L 158.519531 54.996094 Z M 158.519531 63.621094 "/>
<path style="fill-rule:nonzero;fill:rgb(69.803923%,85.09804%,100%);fill-opacity:1;stroke-width:1;stroke-linecap:round;stroke-linejoin:round;stroke:rgb(0%,0%,0%);stroke-opacity:1;stroke-miterlimit:10;" d="M 144.03125 139.213867 L 162.03125 139.213867 L 162.03125 157.213867 L 144.03125 157.213867 Z M 144.03125 139.213867 " transform="matrix(1.333333,0,0,1.333333,-70.666667,-137.333333)"/>
<path style=" stroke:none;fill-rule:nonzero;fill:rgb(0%,0%,0%);fill-opacity:1;" d="M 130.539062 59.390625 C 130.539062 58.382812 130.644531 57.558594 130.851562 56.933594 C 131.058594 56.308594 131.363281 55.828125 131.769531 55.496094 C 132.183594 55.164062 132.707031 54.996094 133.332031 54.996094 C 133.800781 54.996094 134.210938 55.09375 134.558594 55.289062 C 134.902344 55.46875 135.191406 55.734375 135.414062 56.078125 C 135.632812 56.429688 135.808594 56.851562 135.933594 57.351562 C 136.070312 57.851562 136.144531 58.53125 136.144531 59.390625 C 136.144531 60.390625 136.039062 61.203125 135.832031 61.828125 C 135.621094 62.445312 135.308594 62.921875 134.894531 63.265625 C 134.488281 63.601562 133.964844 63.765625 133.332031 63.765625 C 132.507812 63.765625 131.863281 63.46875 131.394531 62.871094 C 130.820312 62.164062 130.539062 61.007812 130.539062 59.390625 Z M 131.621094 59.390625 C 131.621094 60.796875 131.777344 61.734375 132.101562 62.203125 C 132.433594 62.664062 132.839844 62.890625 133.332031 62.890625 C 133.816406 62.890625 134.226562 62.664062 134.558594 62.203125 C 134.894531 61.734375 135.058594 60.796875 135.058594 59.390625 C 135.058594 57.976562 134.894531 57.039062 134.558594 56.578125 C 134.226562 56.109375 133.816406 55.871094 133.332031 55.871094 C 132.839844 55.871094 132.457031 56.074219 132.164062 56.476562 C 131.800781 57.007812 131.621094 57.976562 131.621094 59.390625 Z M 131.621094 59.390625 "/>
<path style=" stroke:none;fill-rule:nonzero;fill:rgb(0%,0%,0%);fill-opacity:1;" d="M 234.859375 13.144531 C 234.859375 11.730469 235.238281 10.621094 236.003906 9.8125 C 236.765625 8.996094 237.753906 8.582031 238.964844 8.582031 C 239.753906 8.582031 240.46875 8.78125 241.109375 9.167969 C 241.746094 9.542969 242.234375 10.074219 242.566406 10.75 C 242.902344 11.433594 243.066406 12.199219 243.066406 13.042969 C 243.066406 13.917969 242.890625 14.703125 242.546875 15.394531 C 242.199219 16.078125 241.699219 16.597656 241.046875 16.957031 C 240.40625 17.308594 239.714844 17.480469 238.964844 17.480469 C 238.15625 17.480469 237.433594 17.285156 236.796875 16.894531 C 236.15625 16.511719 235.671875 15.972656 235.339844 15.292969 C 235.015625 14.613281 234.859375 13.894531 234.859375 13.144531 Z M 236.027344 13.167969 C 236.027344 14.207031 236.300781 15.03125 236.859375 15.625 C 237.410156 16.207031 238.113281 16.5 238.964844 16.5 C 239.808594 16.5 240.511719 16.203125 241.066406 15.605469 C 241.621094 15.011719 241.902344 14.15625 241.902344 13.042969 C 241.902344 12.347656 241.78125 11.746094 241.546875 11.230469 C 241.308594 10.703125 240.964844 10.292969 240.503906 10 C 240.046875 9.707031 239.535156 9.5625 238.984375 9.5625 C 238.175781 9.5625 237.484375 9.84375 236.902344 10.394531 C 236.316406 10.953125 236.027344 11.875 236.027344 13.167969 Z M 236.027344 13.167969 "/>
<path style=" stroke:none;fill-rule:nonzero;fill:rgb(0%,0%,0%);fill-opacity:1;" d="M 248.484375 17.332031 L 248.484375 16.417969 C 247.996094 17.125 247.339844 17.480469 246.507812 17.480469 C 246.140625 17.480469 245.804688 17.40625 245.484375 17.269531 C 245.164062 17.121094 244.921875 16.9375 244.757812 16.730469 C 244.601562 16.519531 244.496094 16.265625 244.445312 15.957031 C 244.402344 15.75 244.382812 15.417969 244.382812 14.957031 L 244.382812 11.105469 L 245.421875 11.105469 L 245.421875 14.5625 C 245.421875 15.121094 245.449219 15.488281 245.507812 15.667969 C 245.558594 15.949219 245.695312 16.167969 245.902344 16.332031 C 246.121094 16.488281 246.390625 16.5625 246.714844 16.5625 C 247.03125 16.5625 247.328125 16.488281 247.609375 16.332031 C 247.886719 16.167969 248.078125 15.949219 248.195312 15.667969 C 248.304688 15.390625 248.359375 14.980469 248.359375 14.4375 L 248.359375 11.105469 L 249.421875 11.105469 L 249.421875 17.332031 Z M 248.484375 17.332031 "/>
<path style=" stroke:none;fill-rule:nonzero;fill:rgb(0%,0%,0%);fill-opacity:1;" d="M 253.382812 16.394531 L 253.53125 17.3125 C 253.222656 17.378906 252.957031 17.417969 252.738281 17.417969 C 252.347656 17.417969 252.050781 17.355469 251.84375 17.230469 C 251.632812 17.105469 251.476562 16.949219 251.382812 16.75 C 251.300781 16.558594 251.257812 16.144531 251.257812 15.519531 L 251.257812 11.9375 L 250.488281 11.9375 L 250.488281 11.105469 L 251.257812 11.105469 L 251.257812 9.5625 L 252.320312 8.9375 L 252.320312 11.105469 L 253.382812 11.105469 L 253.382812 11.9375 L 252.320312 11.9375 L 252.320312 15.5625 C 252.320312 15.871094 252.332031 16.0625 252.363281 16.144531 C 252.40625 16.230469 252.46875 16.300781 252.550781 16.355469 C 252.632812 16.410156 252.75 16.4375 252.90625 16.4375 C 253.03125 16.4375 253.1875 16.425781 253.382812 16.394531 Z M 253.382812 16.394531 "/>
<path style=" stroke:none;fill-rule:nonzero;fill:rgb(0%,0%,0%);fill-opacity:1;" d="M 254.40625 19.707031 L 254.40625 11.105469 L 255.363281 11.105469 L 255.363281 11.917969 C 255.582031 11.597656 255.832031 11.363281 256.113281 11.207031 C 256.40625 11.058594 256.757812 10.980469 257.175781 10.980469 C 257.703125 10.980469 258.164062 11.121094 258.570312 11.394531 C 258.972656 11.660156 259.28125 12.042969 259.488281 12.542969 C 259.695312 13.042969 259.800781 13.582031 259.800781 14.167969 C 259.800781 14.808594 259.679688 15.386719 259.445312 15.894531 C 259.222656 16.410156 258.894531 16.808594 258.46875 17.082031 C 258.035156 17.34375 257.578125 17.480469 257.09375 17.480469 C 256.742188 17.480469 256.429688 17.402344 256.15625 17.25 C 255.875 17.097656 255.644531 16.910156 255.46875 16.6875 L 255.46875 19.707031 Z M 255.363281 14.25 C 255.363281 15.058594 255.519531 15.65625 255.84375 16.042969 C 256.175781 16.417969 256.570312 16.605469 257.03125 16.605469 C 257.488281 16.605469 257.882812 16.410156 258.21875 16.019531 C 258.5625 15.621094 258.738281 15 258.738281 14.167969 C 258.738281 13.375 258.570312 12.785156 258.238281 12.394531 C 257.914062 11.996094 257.53125 11.792969 257.070312 11.792969 C 256.625 11.792969 256.226562 12.011719 255.882812 12.4375 C 255.535156 12.855469 255.363281 13.457031 255.363281 14.25 Z M 255.363281 14.25 "/>
<path style=" stroke:none;fill-rule:nonzero;fill:rgb(0%,0%,0%);fill-opacity:1;" d="M 265.15625 17.332031 L 265.15625 16.417969 C 264.667969 17.125 264.011719 17.480469 263.179688 17.480469 C 262.8125 17.480469 262.476562 17.40625 262.15625 17.269531 C 261.835938 17.121094 261.59375 16.9375 261.429688 16.730469 C 261.273438 16.519531 261.167969 16.265625 261.117188 15.957031 C 261.074219 15.75 261.054688 15.417969 261.054688 14.957031 L 261.054688 11.105469 L 262.09375 11.105469 L 262.09375 14.5625 C 262.09375 15.121094 262.121094 15.488281 262.179688 15.667969 C 262.230469 15.949219 262.367188 16.167969 262.574219 16.332031 C 262.792969 16.488281 263.0625 16.5625 263.386719 16.5625 C 263.703125 16.5625 264 16.488281 264.28125 16.332031 C 264.558594 16.167969 264.75 15.949219 264.867188 15.667969 C 264.976562 15.390625 265.03125 14.980469 265.03125 14.4375 L 265.03125 11.105469 L 266.09375 11.105469 L 266.09375 17.332031 Z M 265.15625 17.332031 "/>
<path style=" stroke:none;fill-rule:nonzero;fill:rgb(0%,0%,0%);fill-opacity:1;" d="M 270.058594 16.394531 L 270.203125 17.3125 C 269.894531 17.378906 269.628906 17.417969 269.410156 17.417969 C 269.019531 17.417969 268.722656 17.355469 268.515625 17.230469 C 268.308594 17.105469 268.152344 16.949219 268.058594 16.75 C 267.972656 16.558594 267.933594 16.144531 267.933594 15.519531 L 267.933594 11.9375 L 267.160156 11.9375 L 267.160156 11.105469 L 267.933594 11.105469 L 267.933594 9.5625 L 268.996094 8.9375 L 268.996094 11.105469 L 270.058594 11.105469 L 270.058594 11.9375 L 268.996094 11.9375 L 268.996094 15.5625 C 268.996094 15.871094 269.003906 16.0625 269.035156 16.144531 C 269.078125 16.230469 269.140625 16.300781 269.222656 16.355469 C 269.308594 16.410156 269.421875 16.4375 269.578125 16.4375 C 269.703125 16.4375 269.859375 16.425781 270.058594 16.394531 Z M 270.058594 16.394531 "/>
<path style=" stroke:none;fill-rule:nonzero;fill:rgb(0%,0%,0%);fill-opacity:1;" d="M 128.199219 17.332031 L 128.199219 8.75 L 129.34375 8.75 L 129.34375 13 L 133.613281 8.75 L 135.136719 8.75 L 131.550781 12.230469 L 135.300781 17.332031 L 133.800781 17.332031 L 130.738281 12.980469 L 129.34375 14.355469 L 129.34375 17.332031 Z M 128.199219 17.332031 "/>
<path style=" stroke:none;fill-rule:nonzero;fill:rgb(0%,0%,0%);fill-opacity:1;" d="M 140.367188 15.332031 L 141.472656 15.457031 C 141.289062 16.097656 140.960938 16.597656 140.492188 16.957031 C 140.035156 17.308594 139.441406 17.480469 138.722656 17.480469 C 137.816406 17.480469 137.097656 17.203125 136.554688 16.644531 C 136.023438 16.078125 135.765625 15.285156 135.765625 14.269531 C 135.765625 13.230469 136.035156 12.425781 136.578125 11.855469 C 137.117188 11.269531 137.816406 10.980469 138.679688 10.980469 C 139.515625 10.980469 140.1875 11.265625 140.703125 11.832031 C 141.226562 12.390625 141.492188 13.183594 141.492188 14.207031 C 141.492188 14.28125 141.492188 14.375 141.492188 14.5 L 136.847656 14.5 C 136.890625 15.183594 137.082031 15.703125 137.429688 16.0625 C 137.773438 16.425781 138.210938 16.605469 138.742188 16.605469 C 139.128906 16.605469 139.457031 16.511719 139.722656 16.3125 C 140 16.105469 140.210938 15.78125 140.367188 15.332031 Z M 136.910156 13.625 L 140.390625 13.625 C 140.347656 13.097656 140.210938 12.703125 139.992188 12.4375 C 139.660156 12.035156 139.222656 11.832031 138.679688 11.832031 C 138.191406 11.832031 137.785156 12 137.453125 12.332031 C 137.128906 12.65625 136.953125 13.082031 136.910156 13.625 Z M 136.910156 13.625 "/>
<path style=" stroke:none;fill-rule:nonzero;fill:rgb(0%,0%,0%);fill-opacity:1;" d="M 142.773438 17.332031 L 142.773438 11.105469 L 143.730469 11.105469 L 143.730469 12.0625 C 143.964844 11.621094 144.1875 11.328125 144.398438 11.1875 C 144.605469 11.050781 144.835938 10.980469 145.085938 10.980469 C 145.429688 10.980469 145.792969 11.09375 146.167969 11.3125 L 145.792969 12.292969 C 145.542969 12.140625 145.28125 12.0625 145.023438 12.0625 C 144.796875 12.0625 144.589844 12.136719 144.398438 12.269531 C 144.214844 12.410156 144.085938 12.605469 144 12.855469 C 143.886719 13.230469 143.835938 13.640625 143.835938 14.082031 L 143.835938 17.332031 Z M 142.773438 17.332031 "/>
<path style=" stroke:none;fill-rule:nonzero;fill:rgb(0%,0%,0%);fill-opacity:1;" d="M 146.789062 17.332031 L 146.789062 11.105469 L 147.746094 11.105469 L 147.746094 12 C 148.191406 11.324219 148.851562 10.980469 149.726562 10.980469 C 150.101562 10.980469 150.441406 11.050781 150.746094 11.1875 C 151.066406 11.3125 151.300781 11.488281 151.457031 11.707031 C 151.605469 11.917969 151.714844 12.175781 151.789062 12.480469 C 151.832031 12.675781 151.851562 13.015625 151.851562 13.5 L 151.851562 17.332031 L 150.789062 17.332031 L 150.789062 13.542969 C 150.789062 13.113281 150.746094 12.792969 150.664062 12.582031 C 150.582031 12.375 150.433594 12.207031 150.226562 12.082031 C 150.019531 11.949219 149.773438 11.875 149.496094 11.875 C 149.050781 11.875 148.664062 12.019531 148.332031 12.3125 C 148.007812 12.59375 147.851562 13.136719 147.851562 13.9375 L 147.851562 17.332031 Z M 146.789062 17.332031 "/>
<path style=" stroke:none;fill-rule:nonzero;fill:rgb(0%,0%,0%);fill-opacity:1;" d="M 157.714844 15.332031 L 158.816406 15.457031 C 158.636719 16.097656 158.308594 16.597656 157.839844 16.957031 C 157.378906 17.308594 156.785156 17.480469 156.066406 17.480469 C 155.160156 17.480469 154.441406 17.203125 153.902344 16.644531 C 153.371094 16.078125 153.109375 15.285156 153.109375 14.269531 C 153.109375 13.230469 153.378906 12.425781 153.921875 11.855469 C 154.464844 11.269531 155.160156 10.980469 156.027344 10.980469 C 156.859375 10.980469 157.53125 11.265625 158.046875 11.832031 C 158.574219 12.390625 158.839844 13.183594 158.839844 14.207031 C 158.839844 14.28125 158.839844 14.375 158.839844 14.5 L 154.191406 14.5 C 154.234375 15.183594 154.425781 15.703125 154.777344 16.0625 C 155.121094 16.425781 155.558594 16.605469 156.089844 16.605469 C 156.472656 16.605469 156.800781 16.511719 157.066406 16.3125 C 157.34375 16.105469 157.558594 15.78125 157.714844 15.332031 Z M 154.253906 13.625 L 157.734375 13.625 C 157.691406 13.097656 157.558594 12.703125 157.339844 12.4375 C 157.003906 12.035156 156.566406 11.832031 156.027344 11.832031 C 155.535156 11.832031 155.128906 12 154.796875 12.332031 C 154.472656 12.65625 154.296875 13.082031 154.253906 13.625 Z M 154.253906 13.625 "/>
<path style=" stroke:none;fill-rule:nonzero;fill:rgb(0%,0%,0%);fill-opacity:1;" d="M 160.117188 17.332031 L 160.117188 8.75 L 161.160156 8.75 L 161.160156 17.332031 Z M 160.117188 17.332031 "/>
<path style=" stroke:none;fill-rule:nonzero;fill:rgb(0%,0%,0%);fill-opacity:1;" d="M 26.445312 17.332031 L 26.445312 8.75 L 27.570312 8.75 L 27.570312 17.332031 Z M 26.445312 17.332031 "/>
<path style=" stroke:none;fill-rule:nonzero;fill:rgb(0%,0%,0%);fill-opacity:1;" d="M 29.445312 17.332031 L 29.445312 11.105469 L 30.40625 11.105469 L 30.40625 12 C 30.847656 11.324219 31.507812 10.980469 32.382812 10.980469 C 32.757812 10.980469 33.097656 11.050781 33.40625 11.1875 C 33.722656 11.3125 33.957031 11.488281 34.113281 11.707031 C 34.265625 11.917969 34.375 12.175781 34.445312 12.480469 C 34.488281 12.675781 34.507812 13.015625 34.507812 13.5 L 34.507812 17.332031 L 33.445312 17.332031 L 33.445312 13.542969 C 33.445312 13.113281 33.40625 12.792969 33.320312 12.582031 C 33.238281 12.375 33.09375 12.207031 32.882812 12.082031 C 32.675781 11.949219 32.429688 11.875 32.15625 11.875 C 31.707031 11.875 31.320312 12.019531 30.988281 12.3125 C 30.664062 12.59375 30.507812 13.136719 30.507812 13.9375 L 30.507812 17.332031 Z M 29.445312 17.332031 "/>
<path style=" stroke:none;fill-rule:nonzero;fill:rgb(0%,0%,0%);fill-opacity:1;" d="M 36.117188 19.707031 L 36.117188 11.105469 L 37.074219 11.105469 L 37.074219 11.917969 C 37.292969 11.597656 37.542969 11.363281 37.824219 11.207031 C 38.117188 11.058594 38.472656 10.980469 38.886719 10.980469 C 39.414062 10.980469 39.878906 11.121094 40.285156 11.394531 C 40.683594 11.660156 40.992188 12.042969 41.199219 12.542969 C 41.410156 13.042969 41.511719 13.582031 41.511719 14.167969 C 41.511719 14.808594 41.394531 15.386719 41.160156 15.894531 C 40.933594 16.410156 40.605469 16.808594 40.179688 17.082031 C 39.746094 17.34375 39.289062 17.480469 38.804688 17.480469 C 38.457031 17.480469 38.144531 17.402344 37.867188 17.25 C 37.585938 17.097656 37.355469 16.910156 37.179688 16.6875 L 37.179688 19.707031 Z M 37.074219 14.25 C 37.074219 15.058594 37.230469 15.65625 37.554688 16.042969 C 37.886719 16.417969 38.285156 16.605469 38.742188 16.605469 C 39.199219 16.605469 39.597656 16.410156 39.929688 16.019531 C 40.273438 15.621094 40.449219 15 40.449219 14.167969 C 40.449219 13.375 40.285156 12.785156 39.949219 12.394531 C 39.628906 11.996094 39.242188 11.792969 38.785156 11.792969 C 38.335938 11.792969 37.941406 12.011719 37.597656 12.4375 C 37.246094 12.855469 37.074219 13.457031 37.074219 14.25 Z M 37.074219 14.25 "/>
<path style=" stroke:none;fill-rule:nonzero;fill:rgb(0%,0%,0%);fill-opacity:1;" d="M 46.871094 17.332031 L 46.871094 16.417969 C 46.378906 17.125 45.722656 17.480469 44.890625 17.480469 C 44.527344 17.480469 44.1875 17.40625 43.871094 17.269531 C 43.546875 17.121094 43.308594 16.9375 43.140625 16.730469 C 42.984375 16.519531 42.878906 16.265625 42.828125 15.957031 C 42.785156 15.75 42.765625 15.417969 42.765625 14.957031 L 42.765625 11.105469 L 43.808594 11.105469 L 43.808594 14.5625 C 43.808594 15.121094 43.832031 15.488281 43.890625 15.667969 C 43.941406 15.949219 44.078125 16.167969 44.285156 16.332031 C 44.503906 16.488281 44.777344 16.5625 45.097656 16.5625 C 45.417969 16.5625 45.714844 16.488281 45.996094 16.332031 C 46.269531 16.167969 46.464844 15.949219 46.578125 15.667969 C 46.6875 15.390625 46.746094 14.980469 46.746094 14.4375 L 46.746094 11.105469 L 47.808594 11.105469 L 47.808594 17.332031 Z M 46.871094 17.332031 "/>
<path style=" stroke:none;fill-rule:nonzero;fill:rgb(0%,0%,0%);fill-opacity:1;" d="M 51.769531 16.394531 L 51.914062 17.3125 C 51.605469 17.378906 51.339844 17.417969 51.121094 17.417969 C 50.730469 17.417969 50.433594 17.355469 50.226562 17.230469 C 50.019531 17.105469 49.863281 16.949219 49.769531 16.75 C 49.683594 16.558594 49.644531 16.144531 49.644531 15.519531 L 49.644531 11.9375 L 48.871094 11.9375 L 48.871094 11.105469 L 49.644531 11.105469 L 49.644531 9.5625 L 50.707031 8.9375 L 50.707031 11.105469 L 51.769531 11.105469 L 51.769531 11.9375 L 50.707031 11.9375 L 50.707031 15.5625 C 50.707031 15.871094 50.714844 16.0625 50.746094 16.144531 C 50.789062 16.230469 50.851562 16.300781 50.933594 16.355469 C 51.019531 16.410156 51.132812 16.4375 51.289062 16.4375 C 51.414062 16.4375 51.570312 16.425781 51.769531 16.394531 Z M 51.769531 16.394531 "/>
</g>
</svg>